<svg width="1551" height="614" viewBox="0 0 1551 614" fill="none" xmlns="http://www.w3.org/2000/svg">
<path fillRule="evenodd" clipRule="evenodd" d="M733.176 4.55984C655.531 22.1808 595.256 84.9109 579.38 161.347C575.006 182.415 574.852 221.375 579.065 241.245C586.779 277.628 603.614 309.953 628.618 336.391C668.99 379.074 717.732 400.039 776.507 400C806.903 399.98 822.769 397.032 851.348 386.1C909.654 363.791 956.065 310.283 972.073 246.916C977.81 224.199 977.153 174.169 970.81 151.049C960.018 111.697 934.185 72.0998 903.141 47.3241C884.941 32.7981 849.659 12.5151 828.318 6.6706C799.777 -1.14538 755.683 -2.40663 733.176 4.55984ZM819.744 62.4187C839.899 72.2638 855.713 94.441 855.828 113.02C855.874 120.746 856.108 120.958 865.998 122.301C887.701 125.254 907.31 139.137 918.051 159.161C922.225 166.937 923.087 171.922 923.085 188.233C923.078 217.637 921.746 219.507 850.993 289.396C796.561 343.165 789.945 349.001 783.41 349.001C772.947 349.001 763.279 338.919 763.279 328.009C763.279 320.196 766.119 316.976 823.053 260.248C880.483 203.026 882.864 200.32 883.804 191.181C885.049 179.053 878.79 168.503 867.597 163.864C850.801 156.902 849.313 157.941 784.094 222.314C725.468 280.175 724.28 281.194 715.393 281.194C708 281.194 705.306 279.965 700.641 274.463C688.674 260.353 688.809 260.152 753.111 195.983C785.108 164.05 812.391 135.775 813.74 133.148C819.223 122.463 814.829 105.732 804.69 98.6866C799 94.7297 782.817 94.172 775.811 97.6914C773.163 99.0212 744.995 125.794 713.217 157.186C659.279 210.467 654.916 214.262 647.567 214.262C636.767 214.262 627.91 205.476 627.91 194.76C627.91 187.456 631.837 183.043 688.429 126.743C721.716 93.6317 752.655 64.6236 757.181 62.2853C777.352 51.8693 798.235 51.9131 819.744 62.4187Z" fill="#206BA5"/>
<path fillRule="evenodd" clipRule="evenodd" d="M1117 495.858C1117 496.329 1114.19 497.009 1110.75 497.367C1107.31 497.726 1104.35 498.465 1104.17 499.01C1103.98 499.554 1103 500 1101.98 500C1099.35 500 1098.72 503.082 1100.48 507.307C1101.32 509.303 1102 511.85 1102 512.968C1102 514.735 1102.64 515 1106.92 515C1109.62 515 1111.99 514.533 1112.18 513.962C1112.37 513.391 1115.78 512.65 1119.76 512.317C1123.74 511.983 1127 511.325 1127 510.855C1127 510.385 1128.53 510 1130.39 510C1134.62 510 1135.27 508.515 1134.4 500.837L1133.74 495H1125.37C1120.77 495 1117 495.386 1117 495.858ZM4.298 526.288C3.637 526.955 2.399 528.08 1.548 528.789C0.198997 529.913 0 535.086 0 568.958C0 590.341 0.273002 608.548 0.607002 609.418C0.941002 610.288 2.066 611 3.107 611C4.148 611 5 611.45 5 612C5 612.55 6.8 613 9 613C11.2 613 13 612.55 13 612C13 611.45 13.675 611 14.5 611C15.325 611 16 610.325 16 609.5C16 608.675 16.45 608 17 608C17.618 608 18 602.81 18 594.429C18 580.855 18.683 578 21.929 578C22.518 578 23 577.55 23 577C23 576.354 34.667 576 56 576C77.333 576 89 576.354 89 577C89 577.55 90.125 578 91.5 578C93.94 578 93.999 578.175 93.968 585.25C93.918 596.689 95.862 596 63.64 596C48.12 596 36 596.391 36 596.892C36 597.382 34.875 598.066 33.5 598.411C32.004 598.786 31 599.753 31 600.819C31 601.799 30.554 603.046 30.008 603.592C28.716 604.884 30.955 611 32.719 611C33.424 611 34 611.45 34 612C34 612.645 45 613 65 613C85 613 96 612.645 96 612C96 611.45 97.125 611 98.5 611C99.875 611 101 610.599 101 610.108C101 609.618 102.125 608.934 103.5 608.589C104.875 608.244 106 607.52 106 606.981C106 606.441 106.675 606 107.5 606C108.433 606 109 605.056 109 603.5C109 602.125 109.441 601 109.981 601C110.52 601 111.244 599.875 111.589 598.5C111.934 597.125 112.618 596 113.108 596C113.599 596 114 591.95 114 587C114 581.951 113.581 578 113.045 578C112.52 578 111.795 576.425 111.434 574.5C111.073 572.575 110.377 571 109.889 571C109.4 571 109 570.325 109 569.5C109 568.675 109.45 568 110 568C110.55 568 111 566.907 111 565.571C111 564.236 111.675 562.468 112.5 561.643C113.6 560.543 114 557.857 114 551.571C114 546.857 113.599 543 113.108 543C112.618 543 111.934 541.875 111.589 540.5C111.244 539.125 110.52 538 109.981 538C109.441 538 109 536.875 109 535.5C109 533.944 108.433 533 107.5 533C106.675 533 106 532.559 106 532.019C106 531.48 104.875 530.756 103.5 530.411C102.125 530.066 101 529.432 101 529.003C101 528.574 99.425 527.927 97.5 527.566C95.575 527.205 94 526.48 94 525.955C94 525.37 82.567 525 64.5 525C37.646 525 34.843 525.158 33.25 526.764C30.483 529.553 28.727 534.127 29.952 535.352C30.528 535.928 31 537.12 31 537.999C31 541.246 36.837 542 62.071 542.011C88.411 542.023 94 542.481 94 544.631C94 545.384 94.45 546 95 546C95.55 546 96 548.025 96 550.5C96 552.975 95.55 555 95 555C94.45 555 94 555.675 94 556.5C94 557.325 93.518 558 92.929 558C92.339 558 91.182 558.675 90.357 559.5C89.087 560.771 83.984 561 57 561C30.016 561 24.913 560.771 23.643 559.5C22.818 558.675 21.484 558 20.678 558C18.338 558 18 555.72 18 539.918V525L11.75 525.038C8.233 525.059 4.974 525.606 4.298 526.288ZM142 568C142 605.556 142.19 611 143.5 611C144.325 611 145 611.45 145 612C145 613.589 155.927 613.216 157.571 611.571C158.765 610.378 159 603.133 159 567.571V525H150.5H142V568ZM243 527.5C243 529.056 242.433 530 241.5 530C240.675 530 240 530.675 240 531.5C240 532.325 239.55 533 239 533C238.45 533 238 533.914 238 535.031C238 536.149 237.325 537.322 236.5 537.638C235.675 537.955 235 538.841 235 539.607C235 540.373 234.55 541 234 541C233.45 541 233 541.696 233 542.548C233 543.399 231.875 545.138 230.5 546.412C229.125 547.687 228 549.69 228 550.865C228 552.096 227.365 553 226.5 553C225.675 553 225 553.675 225 554.5C225 555.325 224.55 556 224 556C223.45 556 223 556.696 223 557.548C223 558.399 221.875 560.138 220.5 561.412C219.125 562.687 218 564.69 218 565.865C218 567.096 217.365 568 216.5 568C215.675 568 215 568.675 215 569.5C215 570.325 214.55 571 214 571C213.45 571 213 571.837 213 572.86C213 573.883 211.902 575.544 210.56 576.552C209.218 577.56 207.86 579.423 207.541 580.692C207.223 581.961 206.52 583 205.981 583C205.441 583 205 583.675 205 584.5C205 585.325 204.775 586 204.5 586C203.351 586 200 581.881 200 580.469C200 579.626 199.325 578.678 198.5 578.362C197.675 578.045 197 577.159 197 576.393C197 575.627 196.55 575 196 575C195.45 575 195 574.1 195 573C195 571.889 194.333 571 193.5 571C192.675 571 192 570.325 192 569.5C192 568.675 191.55 568 191 568C190.45 568 190 566.875 190 565.5C190 563.944 189.433 563 188.5 563C187.675 563 187 562.325 187 561.5C187 560.675 186.55 560 186 560C185.45 560 185 559.304 185 558.452C185 557.601 183.875 555.862 182.5 554.588C181.125 553.313 180 551.31 180 550.135C180 548.904 179.365 548 178.5 548C177.675 548 177 547.518 177 546.929C177 546.339 176.365 545.222 175.589 544.446C174.813 543.671 173.99 542.469 173.759 541.777C173.449 540.847 172.903 540.954 171.67 542.188C170.295 543.563 170 545.987 170 555.929C170 563.31 170.389 568 171 568C171.55 568 172 569.077 172 570.393C172 571.709 172.675 573.045 173.5 573.362C174.325 573.678 175 574.687 175 575.604C175 576.521 176.125 578.313 177.5 579.588C178.875 580.862 180 582.601 180 583.452C180 584.304 180.45 585 181 585C181.55 585 182 585.627 182 586.393C182 587.159 182.675 588.045 183.5 588.362C184.325 588.678 185 589.851 185 590.969C185 592.086 185.45 593 186 593C186.55 593 187 593.675 187 594.5C187 595.325 187.675 596 188.5 596C189.391 596 190 596.918 190 598.263C190 599.509 191.123 601.369 192.5 602.403C193.875 603.435 195 604.877 195 605.606C195 608.218 200.799 613 203.966 613C205.635 613 207 612.55 207 612C207 611.45 207.675 611 208.5 611C209.325 611 210 610.518 210 609.929C210 609.339 210.563 608.23 211.25 607.463C214.218 604.154 215 603.023 215 602.042C215 601.469 215.401 601 215.892 601C216.382 601 217.066 599.875 217.411 598.5C217.756 597.125 218.48 596 219.019 596C219.559 596 220 595.325 220 594.5C220 593.675 220.42 593 220.933 593C221.446 593 222.176 592.02 222.556 590.823C222.936 589.626 224.316 587.493 225.624 586.083C226.931 584.674 228 582.953 228 582.26C228 581.567 228.45 581 229 581C229.55 581 230 580.325 230 579.5C230 578.675 230.441 578 230.981 578C231.52 578 232.244 576.875 232.589 575.5C232.934 574.125 233.618 573 234.108 573C234.599 573 235 572.325 235 571.5C235 570.675 235.675 570 236.5 570C237.333 570 238 569.111 238 568C238 566.9 238.45 566 239 566C239.55 566 240 565.325 240 564.5C240 563.675 240.675 563 241.5 563C242.433 563 243 562.056 243 560.5C243 559.125 243.45 558 244 558C244.55 558 245 557.325 245 556.5C245 555.675 245.675 555 246.5 555C247.365 555 248 554.096 248 552.865C248 551.69 249.125 549.687 250.5 548.412C251.875 547.138 253 545.399 253 544.548C253 543.696 253.45 543 254 543C254.55 543 255 542.325 255 541.5C255 540.675 255.675 540 256.5 540C257.365 540 258 539.096 258 537.865C258 536.69 259.125 534.687 260.5 533.412C261.875 532.138 263 530.426 263 529.607C263 528.788 263.45 527.84 264 527.5C266.878 525.721 263.993 525 254 525H243V527.5ZM359 525.981C359 526.52 357.875 527.244 356.5 527.589C354.448 528.104 354 528.825 354 531.608C354 533.474 353.55 535 353 535C352.353 535 352 547 352 569C352 591 352.353 603 353 603C353.55 603 354 604.8 354 607C354 610.6 354.25 611 356.5 611C357.875 611 359 611.45 359 612C359 612.55 360.575 613 362.5 613C364.425 613 366 612.55 366 612C366 611.45 366.675 611 367.5 611C368.433 611 369 610.056 369 608.5C369 607.125 369.45 606 370 606C370.648 606 371 593.167 371 569.5C371 545.833 370.648 533 370 533C369.45 533 369 531.875 369 530.5C369 529.043 368.425 528 367.622 528C366.865 528 365.685 527.325 365 526.5C363.619 524.837 359 524.437 359 525.981ZM394 526.5C394 527.325 393.55 528 393 528C392.349 528 392 542.833 392 570.5V613H401H410V569V525H402C395.556 525 394 525.292 394 526.5ZM488 526.5C488 527.325 487.55 528 487 528C486.356 528 486 538.667 486 558C486 584 485.8 588 484.5 588C483.675 588 483 587.55 483 587C483 586.45 482.325 586 481.5 586C480.675 586 480 585.325 480 584.5C480 583.675 479.518 583 478.929 583C478.339 583 477.23 582.438 476.463 581.75C473.435 579.034 472.058 578 471.471 578C470.456 578 468 575.22 468 574.071C468 573.482 467.491 573 466.868 573C466.246 573 464.251 571.425 462.435 569.5C460.62 567.575 458.675 566 458.113 566C457.551 566 455.966 564.875 454.591 563.5C453.216 562.125 451.62 561 451.045 561C450.47 561 450 560.325 450 559.5C450 558.675 449.518 558 448.929 558C447.544 558 445 555.456 445 554.071C445 553.482 443.875 553 442.5 553C440.944 553 440 552.433 440 551.5C440 550.675 439.576 550 439.059 550C438.541 550 435.771 547.75 432.903 545C429.142 541.395 426.895 540 424.844 540H422V550C422 558.222 422.267 560 423.5 560C424.325 560 425 560.675 425 561.5C425 562.325 425.482 563 426.071 563C426.661 563 427.77 563.563 428.537 564.25C431.846 567.218 432.977 568 433.958 568C434.531 568 435 568.482 435 569.071C435 570.241 437.463 573 438.507 573C438.864 573 440.939 574.8 443.117 577C445.295 579.2 447.54 581 448.106 581C448.671 581 450.62 582.575 452.435 584.5C454.251 586.425 456.246 588 456.868 588C457.491 588 458 588.482 458 589.071C458 590.435 460.536 593 461.883 593C462.447 593 464.034 594.125 465.409 595.5C466.784 596.875 468.38 598 468.955 598C469.53 598 470 598.675 470 599.5C470 600.325 470.485 601 471.078 601C471.672 601 473.939 602.8 476.117 605C478.295 607.2 480.735 609 481.539 609C482.342 609 483 609.45 483 610C483 610.55 484.125 611 485.5 611C486.875 611 488 611.45 488 612C488 612.55 489.8 613 492 613C494.2 613 496 612.55 496 612C496 611.45 496.675 611 497.5 611C498.325 611 499.9 610.1 501 609C502.935 607.065 503 605.667 503 566V525H495.5C489.5 525 488 525.3 488 526.5ZM531 525.981C531 526.52 529.875 527.244 528.5 527.589L526 528.217V569.608V611H528.5C529.875 611 531 611.45 531 612C531 612.55 532.575 613 534.5 613C536.425 613 538 612.55 538 612C538 611.45 538.482 611 539.071 611C542.261 611 543 608.109 543 595.643C543 585.865 543.327 582.816 544.5 581.643C545.325 580.818 546 579.661 546 579.071C546 578.482 546.675 578 547.5 578C548.325 578 549 577.55 549 577C549 576.352 561.76 575.995 585.25 575.985C605.188 575.976 621.96 575.639 622.523 575.235C623.92 574.232 627 569.302 627 568.07C627 567.519 625.681 565.72 624.069 564.071L621.138 561.072L585.319 560.786L549.5 560.5L546.25 557.392L543 554.283V542.608V530.933L539.966 527.966C537.002 525.07 531 523.741 531 525.981ZM553.75 527.984C551.949 529.876 551 531.954 551 534.008C551 537.126 552.884 540 554.929 540C555.518 540 556 540.45 556 541C556 541.647 568.226 542 590.679 542C628.007 542 632 541.554 632 537.382C632 536.164 632.563 534.904 633.25 534.583C634.25 534.117 634.25 533.883 633.25 533.417C632.563 533.096 632 531.746 632 530.417C632 528.935 631.42 528 630.5 528C629.675 528 629 527.325 629 526.5C629 525.193 624.327 525.006 592.75 525.048L556.5 525.096L553.75 527.984ZM677.75 527.984C675.949 529.876 675 531.954 675 534.008C675 537.126 676.884 540 678.929 540C679.518 540 680 540.417 680 540.927C680 541.466 691.211 541.99 706.75 542.177C731.691 542.478 733.652 542.633 735.75 544.472C736.987 545.557 738 547.469 738 548.722C738 549.975 738.45 551 739 551C739.644 551 740 561.333 740 580C740 604.467 740.223 609 741.429 609C742.214 609 743.532 608.325 744.357 607.5C745.182 606.675 746.339 606 746.929 606C747.518 606 748 605.518 748 604.929C748 603.544 750.544 601 751.929 601C752.518 601 753 600.068 753 598.929C753 597.789 753.675 596.182 754.5 595.357C755.325 594.532 756 592.539 756 590.929C756 589.318 756.45 588 757 588C757.632 588 758 581 758 569C758 558.55 757.608 550 757.128 550C756.648 550 755.968 548.2 755.616 546C755.264 543.8 754.532 542 753.988 542C753.445 542 753 541.337 753 540.526C753 538.61 744.39 530 742.474 530C741.663 530 741 529.55 741 529C741 528.45 740.132 528 739.071 528C738.011 528 736.468 527.325 735.643 526.5C734.382 525.239 729.874 525.008 707.321 525.048L680.5 525.096L677.75 527.984ZM776 569V613H783.071C787.867 613 790.603 612.54 791.571 611.571C792.677 610.466 793 606.896 793 595.794C793 578.03 793.021 578 805.147 578C812.528 578 813.483 578.229 815.588 580.5C816.862 581.875 818.601 583 819.452 583C820.304 583 821 583.675 821 584.5C821 585.325 821.675 586 822.5 586C823.325 586 824 586.45 824 587C824 587.55 824.567 588 825.26 588C825.953 588 827.734 589.125 829.217 590.5C830.699 591.875 832.382 593 832.956 593C833.53 593 834 593.675 834 594.5C834 595.364 834.904 596 836.132 596C837.304 596 839.749 597.575 841.565 599.5C843.38 601.425 845.796 603 846.933 603C848.104 603 849 603.65 849 604.5C849 605.325 849.482 606 850.071 606C850.661 606 851.77 606.562 852.537 607.25C855.846 610.218 856.977 611 857.958 611C858.531 611 859 611.45 859 612C859 612.599 862.964 613 868.893 613C876.462 613 878.913 612.67 879.325 611.596C880.329 608.979 878.836 606.227 875.412 604.383C873.535 603.372 872 602.198 872 601.773C872 601.348 871.325 601 870.5 601C869.675 601 869 600.559 869 600.019C869 599.48 867.961 598.777 866.692 598.459C865.423 598.14 863.56 596.782 862.552 595.44C861.544 594.098 859.883 593 858.86 593C857.837 593 857 592.55 857 592C857 591.45 856.325 591 855.5 591C854.675 591 854 590.325 854 589.5C854 588.675 853.325 588 852.5 588C851.675 588 851 587.55 851 587C851 586.45 850.152 586 849.117 586C846.349 586 845.627 581.996 847.997 579.789C849.62 578.276 851.773 578 861.958 578C868.581 578 874 577.599 874 577.108C874 576.618 875.125 575.934 876.5 575.589C877.875 575.244 879 574.52 879 573.981C879 573.441 879.482 573 880.071 573C881.456 573 884 570.456 884 569.071C884 568.482 884.675 568 885.5 568C886.42 568 887 567.065 887 565.583C887 564.254 887.479 563.007 888.064 562.812C889.552 562.316 889.603 542.701 888.118 542.206C887.503 542.001 887 540.794 887 539.524C887 538.253 886.325 536.955 885.5 536.638C884.675 536.322 884 535.604 884 535.043C884 533.261 880.623 530 878.778 530C877.8 530 877 529.55 877 529C877 528.45 875.987 527.986 874.75 527.968C873.513 527.951 871.626 527.276 870.559 526.468C868.948 525.25 863.289 525 837.309 525H806V533.435V541.87L836.888 542.185L867.777 542.5L869.855 545C872.469 548.144 872.958 558 870.5 558C869.675 558 869 558.675 869 559.5C869 560.325 868.325 561 867.5 561C866.675 561 866 561.45 866 562C866 562.647 853.837 563 831.511 563C800.322 563 796.83 562.835 795.011 561.278C793.153 559.687 793 558.348 793 543.706C793 531.304 792.689 527.546 791.571 526.429C790.603 525.46 787.867 525 783.071 525H776V569ZM913.241 526.986C912.306 528.484 912 539.076 912 569.986V611H915C916.65 611 918 611.45 918 612C918 612.55 920.427 613 923.393 613C927.388 613 928.943 612.59 929.393 611.418C929.727 610.548 930 590.748 930 567.418V525H922.241C915.582 525 914.305 525.282 913.241 526.986ZM1014.2 526.2C1013.54 526.86 1013 527.985 1013 528.7C1013 529.415 1012.55 530 1012 530C1011.45 530 1011 530.675 1011 531.5C1011 532.325 1010.58 533 1010.07 533C1009.55 533 1008.82 533.98 1008.44 535.177C1008.06 536.374 1006.68 538.507 1005.38 539.917C1004.07 541.326 1003 543.047 1003 543.74C1003 544.433 1002.6 545 1002.11 545C1001.62 545 1000.93 546.125 1000.59 547.5C1000.24 548.875 999.52 550 998.981 550C998.441 550 998 550.675 998 551.5C998 552.325 997.559 553 997.019 553C996.48 553 995.756 554.125 995.411 555.5C995.066 556.875 994.382 558 993.892 558C993.401 558 993 558.469 993 559.042C993 560.023 992.218 561.154 989.25 564.463C988.563 565.23 988 566.339 988 566.929C988 567.518 987.599 568 987.108 568C986.618 568 985.934 569.125 985.589 570.5C985.244 571.875 984.52 573 983.981 573C983.441 573 983 573.482 983 574.071C983 574.661 982.438 575.77 981.75 576.537C979.102 579.489 978 580.936 978 581.458C978 582.139 974.175 586 973.5 586C973.225 586 973 585.325 973 584.5C973 583.675 972.559 583 972.019 583C971.48 583 970.756 581.875 970.411 580.5C970.066 579.125 969.453 578 969.049 578C968.645 578 967.467 576.425 966.43 574.5C965.393 572.575 964.246 571 963.881 571C963.516 571 962.934 569.875 962.589 568.5C962.244 567.125 961.52 566 960.981 566C960.441 566 960 565.325 960 564.5C960 563.675 959.559 563 959.019 563C958.48 563 957.756 561.875 957.411 560.5C957.066 559.125 956.382 558 955.892 558C955.401 558 955 557.518 955 556.929C955 556.339 954.438 555.23 953.75 554.463C950.782 551.154 950 550.023 950 549.042C950 548.469 949.599 548 949.108 548C948.618 548 947.934 546.875 947.589 545.5C947.244 544.125 946.52 543 945.981 543C945.441 543 945 542.288 945 541.417C945 540.546 944.438 540.02 943.75 540.249C942.84 540.551 942.425 544.769 942.224 555.735C941.997 568.171 942.216 571.073 943.474 572.332C944.314 573.171 945 574.339 945 574.929C945 575.518 945.441 576 945.981 576C946.52 576 947.244 577.125 947.589 578.5C947.934 579.875 948.547 581 948.951 581C949.355 581 950.533 582.575 951.57 584.5C952.607 586.425 953.802 588 954.227 588C954.652 588 955 588.675 955 589.5C955 590.325 955.441 591 955.981 591C956.52 591 957.244 592.125 957.589 593.5C957.934 594.875 958.547 596 958.951 596C959.355 596 960.533 597.575 961.57 599.5C962.607 601.425 963.802 603 964.227 603C964.652 603 965 603.675 965 604.5C965 605.325 965.441 606 965.981 606C966.52 606 967.244 607.125 967.589 608.5C967.982 610.064 968.925 611 970.108 611C971.149 611 972 611.45 972 612C972 612.55 973.14 613 974.534 613C977.289 613 983 607.918 983 605.466C983 604.659 983.45 604 984 604C984.55 604 985 603.325 985 602.5C985 601.675 985.675 601 986.5 601C987.365 601 988 600.096 988 598.865C988 597.69 989.125 595.687 990.5 594.412C991.875 593.138 993 591.399 993 590.548C993 589.696 993.45 589 994 589C994.55 589 995 588.325 995 587.5C995 586.675 995.675 586 996.5 586C997.345 586 998 585.106 998 583.952C998 582.826 999.125 580.862 1000.5 579.588C1001.88 578.313 1003 576.521 1003 575.604C1003 574.687 1003.68 573.678 1004.5 573.362C1005.32 573.045 1006 572.159 1006 571.393C1006 570.627 1006.45 570 1007 570C1007.55 570 1008 569.304 1008 568.452C1008 567.601 1009.06 565.913 1010.36 564.702C1011.66 563.491 1013.04 561.488 1013.43 560.25C1013.82 559.012 1014.55 558 1015.07 558C1015.58 558 1016 557.325 1016 556.5C1016 555.675 1016.45 555 1017 555C1017.55 555 1018 554.304 1018 553.452C1018 552.601 1019.06 550.913 1020.36 549.702C1021.66 548.491 1023.04 546.488 1023.43 545.25C1023.82 544.012 1024.55 543 1025.07 543C1025.58 543 1026 542.325 1026 541.5C1026 540.675 1026.4 540 1026.89 540C1027.38 540 1028.07 538.875 1028.41 537.5C1028.76 536.125 1029.48 535 1030.02 535C1030.56 535 1031 534.518 1031 533.929C1031 533.339 1031.56 532.23 1032.25 531.463C1035.22 528.154 1036 527.023 1036 526.042C1036 524.516 1015.74 524.662 1014.2 526.2ZM1107 526.5C1107 527.325 1106.52 528 1105.93 528C1104.16 528 1102 530.715 1102 532.929C1102 534.103 1101.35 535 1100.5 535C1099.68 535 1099 535.675 1099 536.5C1099 537.325 1098.55 538 1098 538C1097.45 538 1097 538.914 1097 540.031C1097 541.149 1096.32 542.322 1095.5 542.638C1094.68 542.955 1094 543.648 1094 544.178C1094 544.709 1093.44 545.77 1092.75 546.537C1089.78 549.846 1089 550.977 1089 551.958C1089 552.531 1088.6 553 1088.11 553C1087.62 553 1086.93 554.125 1086.59 555.5C1086.24 556.875 1085.52 558 1084.98 558C1084.44 558 1084 558.469 1084 559.042C1084 560.023 1083.22 561.154 1080.25 564.463C1079.56 565.23 1079 566.339 1079 566.929C1079 567.518 1078.6 568 1078.11 568C1077.62 568 1076.93 569.125 1076.59 570.5C1076.24 571.875 1075.52 573 1074.98 573C1074.44 573 1074 573.675 1074 574.5C1074 575.325 1073.58 576 1073.07 576C1072.55 576 1071.82 576.98 1071.44 578.177C1071.06 579.374 1069.68 581.507 1068.38 582.917C1067.07 584.326 1066 586.047 1066 586.74C1066 587.433 1065.55 588 1065 588C1064.45 588 1064 588.675 1064 589.5C1064 590.325 1063.56 591 1063.02 591C1062.48 591 1061.76 592.125 1061.41 593.5C1061.07 594.875 1060.38 596 1059.89 596C1059.4 596 1059 596.675 1059 597.5C1059 598.325 1058.32 599 1057.5 599C1056.67 599 1056 599.889 1056 601C1056 602.1 1055.55 603 1055 603C1054.45 603 1054 603.675 1054 604.5C1054 605.325 1053.32 606 1052.5 606C1050.96 606 1050.53 608.611 1051.61 611.418C1052.1 612.704 1053.96 613 1061.54 613C1069.99 613 1070.93 612.812 1071.5 611C1071.85 609.9 1072.55 609 1073.07 609C1073.58 609 1074 608.325 1074 607.5C1074 606.675 1074.4 606 1074.89 606C1075.38 606 1076.07 604.875 1076.41 603.5C1076.76 602.125 1077.48 601 1078.02 601C1078.56 601 1079 600.325 1079 599.5C1079 598.675 1079.42 598 1079.93 598C1080.45 598 1081.19 596.988 1081.58 595.75C1081.97 594.512 1083.06 592.825 1084 592C1084.94 591.175 1086.03 589.488 1086.42 588.25C1086.81 587.012 1087.55 586 1088.07 586C1088.58 586 1089 585.325 1089 584.5C1089 583.675 1089.4 583 1089.89 583C1090.38 583 1091.07 581.875 1091.41 580.5C1091.76 579.125 1092.48 578 1093.02 578C1093.56 578 1094 577.531 1094 576.958C1094 575.977 1094.78 574.846 1097.75 571.537C1098.44 570.77 1099 569.661 1099 569.071C1099 568.482 1099.44 568 1099.98 568C1100.52 568 1101.24 566.875 1101.59 565.5C1101.93 564.125 1102.62 563 1103.11 563C1103.6 563 1104 562.325 1104 561.5C1104 560.675 1104.44 560 1104.98 560C1105.52 560 1106.24 558.875 1106.59 557.5C1107.1 555.448 1107.83 555 1110.61 555C1112.96 555 1114 555.462 1114 556.5C1114 557.325 1114.68 558 1115.5 558C1116.43 558 1117 558.944 1117 560.5C1117 561.875 1117.51 563 1118.14 563C1119.52 563 1121.92 566.008 1121.97 567.798C1121.99 568.512 1123.12 570.138 1124.5 571.412C1125.88 572.687 1127 574.526 1127 575.5C1127 576.474 1128.12 578.313 1129.5 579.588C1130.88 580.862 1132 582.397 1132 583C1132 583.603 1133.12 585.138 1134.5 586.412C1136.28 588.065 1137 589.771 1137 592.365V596H1127C1121 596 1117 596.4 1117 597C1117 597.55 1116.32 598 1115.5 598C1114.57 598 1114 598.944 1114 600.5C1114 602.056 1114.57 603 1115.5 603C1116.32 603 1117 603.675 1117 604.5C1117 605.325 1117.45 606 1118 606C1118.55 606 1119 606.606 1119 607.347C1119 608.088 1119.84 609.663 1120.87 610.847C1122.65 612.903 1123.55 613 1140.87 613C1152.29 613 1159 612.63 1159 612C1159 611.45 1159.68 611 1160.5 611C1161.32 611 1162 610.518 1162 609.929C1162 609.339 1162.68 608.182 1163.5 607.357C1164.32 606.532 1165 604.3 1165 602.397C1165 600.244 1164.43 598.72 1163.5 598.362C1162.68 598.045 1162 596.816 1162 595.63C1162 594.445 1160.88 592.63 1159.5 591.597C1158.12 590.565 1157 589.047 1157 588.225C1157 587.402 1155.88 585.687 1154.5 584.412C1153.12 583.138 1152 581.338 1152 580.412C1152 579.487 1150.88 577.687 1149.5 576.412C1148.12 575.138 1147 573.399 1147 572.548C1147 571.696 1146.55 571 1146 571C1145.45 571 1145 570.325 1145 569.5C1145 568.675 1144.32 568 1143.5 568C1142.57 568 1142 567.056 1142 565.5C1142 563.944 1141.43 563 1140.5 563C1139.68 563 1139 562.325 1139 561.5C1139 560.675 1138.55 560 1138 560C1137.45 560 1137 559.304 1137 558.452C1137 557.601 1135.88 555.862 1134.5 554.588C1133.12 553.313 1132 551.31 1132 550.135C1132 548.904 1131.37 548 1130.5 548C1129.68 548 1129 547.325 1129 546.5C1129 545.675 1128.55 545 1128 545C1127.45 545 1127 544.163 1127 543.14C1127 542.117 1125.88 540.435 1124.5 539.403C1123.12 538.37 1122 536.749 1122 535.801C1122 534.853 1120.01 532.034 1117.59 529.538C1114.23 526.085 1112.44 525 1110.09 525C1108.01 525 1107 525.49 1107 526.5ZM1148.75 527.083C1146.42 529.631 1146.22 540 1148.5 540C1149.32 540 1150 540.45 1150 541C1150 541.631 1156.92 542.004 1168.75 542.011C1179.06 542.017 1189.19 542.301 1191.25 542.642L1195 543.262V576.702C1195 604.351 1195.25 610.39 1196.43 611.571C1198.08 613.227 1210 613.603 1210 612C1210 611.45 1210.68 611 1211.5 611C1212.81 611 1213 605.747 1213 569.722C1213 529.604 1212.94 528.396 1210.99 526.722C1209.18 525.173 1206.04 525.008 1179.74 525.083C1152.26 525.162 1150.39 525.282 1148.75 527.083ZM1225 533.477V542H1242.5C1253.45 542 1260.03 541.626 1260.08 541C1260.12 540.45 1260.19 536.738 1260.24 532.75L1260.32 525.5L1242.66 525.227L1225 524.954V533.477ZM1281.85 526.791C1280.07 527.873 1279 529.563 1278.61 531.95C1277.83 536.69 1277.85 602.48 1278.64 607.25C1279.1 610.025 1279.75 611 1281.13 611C1282.16 611 1283 611.45 1283 612C1283 612.55 1284.8 613 1287 613C1289.2 613 1291 612.55 1291 612C1291 611.45 1291.48 611 1292.07 611C1292.66 611 1293.79 610.357 1294.57 609.571C1295.76 608.383 1296 601.657 1296 569.5C1296 537.343 1295.76 530.617 1294.57 529.429C1293.79 528.643 1292.66 528 1292.07 528C1291.48 528 1291 527.325 1291 526.5C1291 524.482 1285.36 524.661 1281.85 526.791ZM1334.64 526.5C1333.82 527.325 1332.21 528 1331.07 528C1329.93 528 1329 528.45 1329 529C1329 529.55 1327.88 530 1326.5 530C1324.94 530 1324 530.567 1324 531.5C1324 532.325 1323.52 533 1322.93 533C1321.54 533 1319 535.544 1319 536.929C1319 537.518 1318.58 538 1318.07 538C1317.55 538 1316.82 539.012 1316.43 540.25C1316.05 541.488 1315.23 542.821 1314.61 543.214C1312.93 544.294 1313.06 595.186 1314.75 595.75C1315.44 595.979 1316 596.798 1316 597.57C1316 599.463 1325.59 609 1327.49 609C1328.32 609 1329 609.45 1329 610C1329 610.55 1330.12 611 1331.5 611C1332.88 611 1334 611.45 1334 612C1334 612.651 1349 613 1377 613C1405 613 1420 612.651 1420 612C1420 611.45 1420.48 611 1421.07 611C1423.09 611 1425 608.14 1425 605.106C1425 603.088 1424.01 601.051 1422.03 599.034L1419.07 596H1377.96C1346.49 596 1336.53 595.707 1335.46 594.75C1334.7 594.063 1333.38 592.92 1332.54 592.211C1330.28 590.314 1330.24 548.897 1332.5 546.643C1333.32 545.818 1334 544.72 1334 544.202C1334 542.39 1341.81 542.022 1380.53 542.011C1418.41 542 1419.6 541.941 1421 540C1421.79 538.9 1423.02 538 1423.72 538C1424.52 538 1425 536.662 1425 534.423C1425 531.803 1424.22 530.064 1422.08 527.923L1419.15 525H1377.65C1342.09 525 1335.93 525.215 1334.64 526.5ZM1493 526.071C1493 527.456 1490.46 530 1489.07 530C1488.48 530 1488 530.961 1488 532.135C1488 533.31 1486.88 535.313 1485.5 536.588C1484.12 537.862 1483 539.601 1483 540.452C1483 541.304 1482.55 542 1482 542C1481.45 542 1481 542.675 1481 543.5C1481 544.325 1480.32 545 1479.5 545C1478.63 545 1478 545.904 1478 547.135C1478 548.31 1476.88 550.313 1475.5 551.588C1474.12 552.862 1473 554.826 1473 555.952C1473 557.106 1472.35 558 1471.5 558C1470.68 558 1470 558.675 1470 559.5C1470 560.325 1469.55 561 1469 561C1468.45 561 1468 561.696 1468 562.548C1468 563.399 1466.88 565.138 1465.5 566.412C1464.12 567.687 1463 569.69 1463 570.865C1463 572.096 1462.37 573 1461.5 573C1460.68 573 1460 573.675 1460 574.5C1460 575.325 1459.55 576 1459 576C1458.45 576 1458 576.567 1458 577.26C1458 577.953 1456.93 579.674 1455.62 581.083C1454.32 582.493 1452.94 584.626 1452.56 585.823C1452.18 587.02 1451.45 588 1450.93 588C1450.42 588 1450 588.675 1450 589.5C1450 590.325 1449.56 591 1449.02 591C1448.48 591 1447.76 592.125 1447.41 593.5C1447.07 594.875 1446.38 596 1445.89 596C1445.4 596 1445 596.469 1445 597.042C1445 598.023 1444.22 599.154 1441.25 602.463C1440.56 603.23 1440 604.339 1440 604.929C1440 605.518 1439.55 606 1439 606C1438.45 606 1438 607.575 1438 609.5V613H1446.55C1454.17 613 1455.33 612.751 1457.3 610.691C1459.98 607.883 1461.86 605.086 1462.65 602.75C1462.97 601.788 1463.63 601 1464.12 601C1464.6 601 1465 600.325 1465 599.5C1465 598.675 1465.42 598 1465.93 598C1466.45 598 1467.18 597.02 1467.56 595.823C1467.94 594.626 1469.32 592.493 1470.62 591.083C1471.93 589.674 1473 587.953 1473 587.26C1473 586.567 1473.4 586 1473.89 586C1474.38 586 1475.07 584.875 1475.41 583.5C1475.76 582.125 1476.48 581 1477.02 581C1477.56 581 1478 580.489 1478 579.865C1478 579.24 1479.12 577.687 1480.5 576.412C1481.88 575.138 1483 573.399 1483 572.548C1483 571.696 1483.4 571 1483.89 571C1484.38 571 1485.07 569.875 1485.41 568.5C1485.76 567.125 1486.48 566 1487.02 566C1487.56 566 1488 565.325 1488 564.5C1488 563.675 1488.44 563 1488.98 563C1489.52 563 1490.24 561.875 1490.59 560.5C1490.93 559.125 1491.62 558 1492.11 558C1492.6 558 1493 557.325 1493 556.5C1493 555.675 1493.64 555 1494.42 555C1495.2 555 1496.1 554.438 1496.42 553.75C1496.88 552.75 1497.12 552.75 1497.58 553.75C1497.9 554.438 1498.8 555 1499.58 555C1500.36 555 1501 555.675 1501 556.5C1501 557.325 1501.45 558 1502 558C1502.55 558 1503 559.125 1503 560.5C1503 562.056 1503.57 563 1504.5 563C1505.32 563 1506 563.675 1506 564.5C1506 565.325 1506.45 566 1507 566C1507.55 566 1508 566.696 1508 567.548C1508 568.399 1509.06 570.087 1510.36 571.298C1511.66 572.509 1513.04 574.512 1513.43 575.75C1513.82 576.988 1514.55 578 1515.07 578C1515.58 578 1516 578.675 1516 579.5C1516 580.325 1516.44 581 1516.98 581C1517.52 581 1518.24 582.125 1518.59 583.5C1518.93 584.875 1519.62 586 1520.11 586C1520.6 586 1521 586.482 1521 587.071C1521 587.661 1521.68 588.818 1522.5 589.643C1523.32 590.468 1524 592.236 1524 593.571C1524 595.981 1523.92 596 1514 596C1508 596 1504 596.4 1504 597C1504 597.55 1503.32 598 1502.5 598C1501.57 598 1501 598.944 1501 600.5C1501 601.875 1501.4 603 1501.89 603C1502.38 603 1503.07 604.125 1503.41 605.5C1503.76 606.875 1504.48 608 1505.02 608C1505.56 608 1506 608.482 1506 609.071C1506 612.481 1508.7 613 1526.43 613C1537.48 613 1544 612.629 1544 612C1544 611.45 1545.12 611 1546.5 611C1548.5 611 1549 610.5 1549 608.5C1549 607.125 1549.45 606 1550 606C1550.55 606 1551 604.425 1551 602.5C1551 600.575 1550.6 599 1550.11 599C1549.62 599 1548.93 597.875 1548.59 596.5C1548.24 595.125 1547.52 594 1546.98 594C1546.44 594 1546 593.325 1546 592.5C1546 591.675 1545.6 591 1545.11 591C1544.62 591 1543.93 589.875 1543.59 588.5C1543.24 587.125 1542.52 586 1541.98 586C1541.44 586 1541 585.325 1541 584.5C1541 583.675 1540.58 583 1540.07 583C1539.55 583 1538.88 582.212 1538.57 581.25C1538.26 580.288 1536.88 578.193 1535.51 576.594C1534.13 574.996 1533 573.084 1533 572.344C1533 571.605 1532.55 571 1532 571C1531.45 571 1531 570.325 1531 569.5C1531 568.675 1530.58 568 1530.07 568C1529.55 568 1528.81 566.988 1528.42 565.75C1528.03 564.512 1526.94 562.825 1526 562C1525.06 561.175 1523.97 559.488 1523.58 558.25C1523.19 557.012 1522.45 556 1521.93 556C1521.42 556 1521 555.325 1521 554.5C1521 553.675 1520.32 553 1519.5 553C1518.63 553 1518 552.096 1518 550.865C1518 549.69 1516.88 547.687 1515.5 546.412C1514.12 545.138 1513 543.399 1513 542.548C1513 541.696 1512.55 541 1512 541C1511.45 541 1511 540.325 1511 539.5C1511 538.675 1510.32 538 1509.5 538C1508.57 538 1508 537.056 1508 535.5C1508 534.125 1507.55 533 1507 533C1506.45 533 1506 532.325 1506 531.5C1506 530.675 1505.52 530 1504.93 530C1503.54 530 1501 527.456 1501 526.071C1501 525.482 1499.2 525 1497 525C1494.8 525 1493 525.482 1493 526.071ZM660 529C660 529.55 659.325 530 658.5 530C657.675 530 657 530.675 657 531.5C657 532.325 656.518 533 655.929 533C654.728 533 652 535.474 652 536.564C652 536.953 650.875 538.313 649.5 539.588C647.887 541.082 647 542.986 647 544.952C647 546.629 646.55 548 646 548C645.364 548 645 555.833 645 569.5C645 583.167 645.364 591 646 591C646.55 591 647 592.371 647 594.048C647 596.014 647.887 597.918 649.5 599.412C650.875 600.687 652 602.24 652 602.865C652 603.489 652.387 604 652.86 604C653.333 604 655.39 605.575 657.431 607.5C659.932 609.859 662.098 611 664.071 611C665.682 611 667 611.45 667 612C667 612.642 676.836 613 694.509 613H722.018L725.009 610.142C728.326 606.972 729.3 601 726.5 601C725.675 601 725 600.325 725 599.5C725 598.675 724.325 598 723.5 598C722.675 598 722 597.55 722 597C722 596.358 712.427 596 695.282 596H668.564L666.282 593.344C665.027 591.884 664 590.084 664 589.344C664 588.605 663.55 588 663 588C662.356 588 662 577.333 662 558C662 538.667 661.644 528 661 528C660.45 528 660 528.45 660 529ZM263 551.135C263 551.76 261.875 553.313 260.5 554.588C259.125 555.862 258 557.633 258 558.524C258 560.359 255.682 563 254.071 563C253.482 563 253 564.125 253 565.5C253 566.875 252.599 568 252.108 568C251.618 568 250.934 569.125 250.589 570.5C250.244 571.875 249.52 573 248.981 573C248.374 573 248 580.246 248 592C248 608.222 248.219 611 249.5 611C250.325 611 251 611.45 251 612C251 612.57 253.964 613 257.893 613C263.256 613 264.921 612.649 265.393 611.418C265.727 610.548 266 596.373 266 579.918C266 553.991 265.8 550 264.5 550C263.675 550 263 550.511 263 551.135ZM1031 555.5C1031 557.056 1030.43 558 1029.5 558C1028.68 558 1028 558.675 1028 559.5C1028 560.325 1027.55 561 1027 561C1026.45 561 1026 561.696 1026 562.548C1026 563.399 1024.88 565.138 1023.5 566.412C1022.12 567.687 1021 569.69 1021 570.865C1021 572.039 1020.55 573 1020 573C1019.37 573 1019 579.857 1019 591.571C1019 606.333 1019.29 610.436 1020.43 611.571C1022.08 613.227 1034 613.603 1034 612C1034 611.45 1034.9 611 1036 611C1037.95 611 1038 610.333 1038 583.5C1038 565.833 1037.64 556 1037 556C1036.45 556 1036 555.325 1036 554.5C1036 553.567 1035.06 553 1033.5 553C1031.5 553 1031 553.5 1031 555.5Z" fill="black"/>
</svg>
