<svg width="182" height="182" viewBox="0 0 182 182" fill="none" xmlns="http://www.w3.org/2000/svg">
<path d="M72.5 1.3772C29.7 10.7772 0 47.2772 0 90.3772C0 125.177 19.3 156.377 50.5 172.077C53.3 173.477 59.3 175.877 64 177.477C72 180.077 88 182 90 182C92 182 114.721 181.334 130.7 172.877C159.2 158.977 177.4 132.177 181.2 99.8772C183.8 78.0772 177.4 54.5772 163.9 36.3772C159.5 30.2772 148.1 19.3772 142 15.1772C132.1 8.47719 118.7 3.07719 106.6 0.977188C98.5 -0.522812 79.8 -0.222803 72.5 1.3772ZM105.7 24.3772C112.1 26.2772 118 30.5772 121.8 36.0772C124.5 40.0772 125.3 41.9772 127.7 50.2772C128.4 52.7772 129.2 53.3772 133.6 54.3772C148.1 57.6772 158 69.5772 158 83.9772C158 96.9772 157.8 97.2772 126.6 128.677C111.1 144.277 97.5 157.177 96.3 157.577C90.3 158.977 85 154.777 85 148.477C85 144.577 85.7 143.777 111.9 117.477C140.6 88.4772 141.4 87.4772 139 80.3772C137.8 76.6772 134.2 73.5772 129.9 72.5772C123.9 71.0772 121.4 73.0772 94.5 99.8772C80.2 114.077 67.4 126.177 66 126.677C60.3 128.777 54.1 124.277 54 117.877C54 114.677 56 112.477 80.4 87.8772C94.9 73.2772 107.3 60.3772 107.9 59.1772C110.6 53.8772 108.2 46.0772 103 43.3772C101.4 42.5772 98.2 41.8772 95.9 41.8772C91.6 41.8772 91.4 42.0772 64.6 68.7772C47 86.2772 36.5 95.9772 34.7 96.3772C28.4 97.9772 21.9 91.5772 23.4 85.2772C24.4 81.2772 75.9 29.9772 82 26.8772C90.6 22.4772 97.1 21.8772 105.7 24.3772Z" fill="#F8F8F8"/>
</svg>
