<svg width="260" height="260" viewBox="0 0 260 260" fill="none" xmlns="http://www.w3.org/2000/svg">
<g filter="url(#filter0_d_166_223)">
<path d="M104.714 1.9098C45.8485 14.9448 5 65.5593 5 125.326C5 173.583 31.5447 216.848 74.4562 238.619C78.3073 240.561 86.5595 243.889 93.0237 246.108C104.027 249.713 106.5 251.5 129 252.5C155 253 163.168 248.881 184.761 238.342C223.959 219.067 248.991 183.29 254.217 138.5C257.793 108.27 248.991 75.6822 230.423 50.4443C224.372 41.9854 208.692 26.8704 200.303 21.0463C186.686 11.7554 168.256 4.26719 151.615 1.35512C140.474 -0.724924 114.755 -0.308914 104.714 1.9098ZM150.377 33.8039C159.179 36.4386 167.294 42.4014 172.52 50.0283C176.234 55.5751 177.334 58.2098 180.635 69.7194C181.598 73.1862 182.698 74.0182 188.75 75.4049C208.692 79.981 222.309 96.4827 222.309 116.451C222.309 134.478 222.033 134.894 179.122 178.437C157.804 200.069 139.099 217.958 137.448 218.512C129.196 220.454 121.907 214.63 121.907 205.893C121.907 200.485 122.869 199.376 158.904 162.906C198.377 122.691 199.477 121.305 196.177 111.459C194.526 106.328 189.575 102.03 183.661 100.643C175.408 98.5628 171.97 101.336 134.973 138.5C115.305 158.191 97.7 174.97 95.7745 175.663C87.9348 178.575 79.4076 172.335 79.27 163.46C79.27 159.023 82.0208 155.972 115.58 121.859C135.523 101.614 152.577 83.7251 153.402 82.0611C157.116 74.7115 153.815 63.8953 146.663 60.1512C144.463 59.0418 140.061 58.0711 136.898 58.0711C130.984 58.0711 130.709 58.3485 93.8489 95.3734C69.6424 119.641 55.201 133.092 52.7254 133.646C44.0605 135.865 35.1206 126.99 37.1837 118.254C38.559 112.707 109.391 41.5694 117.78 37.2706C129.609 31.1692 138.548 30.3371 150.377 33.8039Z" fill="#206BA5"/>
</g>
<defs>
<filter id="filter0_d_166_223" x="0" y="0" width="260" height="262.54" filterUnits="userSpaceOnUse" color-interpolation-filters="sRGB">
<feFlood flood-opacity="0" result="BackgroundImageFix"/>
<feColorMatrix in="SourceAlpha" type="matrix" values="0 0 0 0 0 0 0 0 0 0 0 0 0 0 0 0 0 0 127 0" result="hardAlpha"/>
<feOffset dy="5"/>
<feGaussianBlur stdDeviation="2.5"/>
<feComposite in2="hardAlpha" operator="out"/>
<feColorMatrix type="matrix" values="0 0 0 0 0.054902 0 0 0 0 0.054902 0 0 0 0 0.054902 0 0 0 0.8 0"/>
<feBlend mode="normal" in2="BackgroundImageFix" result="effect1_dropShadow_166_223"/>
<feBlend mode="normal" in="SourceGraphic" in2="effect1_dropShadow_166_223" result="shape"/>
</filter>
</defs>
</svg>
