<?xml version="1.0" standalone="no"?>
<!DOCTYPE svg PUBLIC "-//W3C//DTD SVG 20010904//EN"
 "http://www.w3.org/TR/2001/REC-SVG-20010904/DTD/svg10.dtd">
<svg version="1.0" xmlns="http://www.w3.org/2000/svg"
 width="309.000000pt" height="163.000000pt" viewBox="0 0 309.000000 163.000000"
 preserveAspectRatio="xMidYMid meet">

<g transform="translate(0.000000,163.000000) scale(0.100000,-0.100000)"
fill="#000000" stroke="none">
<path d="M783 1620 c-129 -27 -234 -120 -272 -242 -11 -34 -16 -37 -54 -40
-39 -3 -42 -5 -49 -43 -4 -22 -10 -49 -13 -60 -4 -18 0 -20 35 -17 26 3 40 0
40 -8 0 -6 -31 -165 -70 -352 -38 -187 -70 -342 -70 -344 0 -2 51 -4 114 -4
l114 0 10 47 c6 27 38 183 72 348 34 165 65 304 69 308 5 5 45 7 90 5 l80 -3
11 48 c17 80 20 77 -75 77 l-85 0 6 28 c25 105 54 126 162 120 42 -3 84 -9 93
-12 13 -6 18 4 28 50 6 32 11 61 11 65 0 24 -173 45 -247 29z"/>
<path d="M167 1526 c-9 -46 -17 -89 -17 -95 0 -7 37 -11 114 -11 l113 0 17 83
c9 45 16 88 16 95 0 9 -29 12 -113 12 l-112 0 -18 -84z"/>
<path d="M2831 1487 c-13 -67 -26 -127 -28 -133 -2 -6 -38 -10 -91 -10 -76 1
-94 -3 -144 -27 -210 -103 -361 -413 -273 -563 35 -59 90 -80 173 -66 72 13
147 49 186 91 17 17 33 31 37 31 3 0 1 -25 -6 -55 l-13 -55 113 0 113 0 11 48
c46 219 171 834 171 846 0 14 -17 16 -112 16 l-113 0 -24 -123z"/>
<path d="M1125 1332 c-128 -45 -225 -131 -282 -250 -58 -122 -59 -242 -1 -308
88 -100 268 -118 428 -42 83 40 176 131 217 216 85 171 61 307 -64 369 -49 24
-72 28 -153 31 -71 2 -108 -2 -145 -16z"/>
<path d="M1880 1336 c-145 -41 -275 -169 -321 -317 -59 -188 19 -307 216 -332
174 -23 376 95 462 270 65 132 56 270 -23 332 -71 56 -223 77 -334 47z"/>
<path d="M130 1332 c0 -5 -29 -149 -64 -320 l-63 -312 116 0 116 0 58 293 c33
160 61 304 64 320 l5 27 -116 0 c-64 0 -116 -4 -116 -8z"/>
<path d="M720 509 c0 -3 7 -30 16 -60 61 -208 232 -371 444 -425 97 -25 281
-23 394 5 103 25 249 91 319 144 26 21 49 37 51 37 2 0 19 -43 37 -96 l33 -96
51 243 51 244 -113 3 c-62 1 -166 1 -230 0 l-117 -3 72 -54 c40 -29 71 -59 69
-65 -7 -21 -160 -116 -236 -145 -320 -124 -624 -48 -787 196 -43 65 -54 79
-54 72z"/>
</g>
</svg>
