<?xml version="1.0" standalone="no"?>
<!DOCTYPE svg PUBLIC "-//W3C//DTD SVG 20010904//EN"
 "http://www.w3.org/TR/2001/REC-SVG-20010904/DTD/svg10.dtd">
<svg version="1.0" xmlns="http://www.w3.org/2000/svg"
 width="400.000000pt" height="400.000000pt" viewBox="0 0 400.000000 400.000000"
 preserveAspectRatio="xMidYMid meet">

<g transform="translate(0.000000,400.000000) scale(0.100000,-0.100000)"
fill="#000000" stroke="none">
<path d="M1789 3448 c-12 -5 -51 -36 -87 -70 -36 -33 -68 -56 -70 -50 -7 21
-53 14 -59 -8 -3 -11 -11 -20 -18 -20 -7 0 -19 -10 -28 -22 -25 -38 -173 -185
-153 -153 10 17 28 41 40 55 19 22 18 22 -10 -2 -56 -52 -49 -28 11 33 l60 62
-47 -32 c-26 -17 -50 -36 -53 -41 -4 -6 -10 -8 -14 -6 -4 3 -18 -13 -31 -36
-15 -26 -19 -43 -12 -47 7 -4 8 -12 2 -21 -8 -12 -10 -12 -10 -1 0 11 -3 11
-15 1 -8 -7 -15 -17 -15 -23 0 -6 -9 -29 -20 -52 -32 -66 -63 -306 -42 -319
11 -7 13 -66 2 -66 -16 0 -51 36 -88 89 -48 70 -66 77 -59 25 8 -62 13 -78 45
-124 22 -32 28 -50 22 -65 -4 -11 -13 -50 -20 -87 -8 -46 -19 -73 -36 -89 -13
-12 -24 -27 -24 -32 0 -5 -10 -26 -22 -46 -13 -20 -24 -49 -25 -66 -1 -16 -5
-63 -9 -104 -6 -71 8 -151 27 -151 4 0 12 23 19 51 7 28 16 47 20 42 4 -4 10
-49 12 -99 3 -67 9 -99 24 -125 11 -19 31 -61 44 -94 27 -69 40 -88 40 -58 0
12 -5 23 -12 25 -9 3 -9 6 0 12 8 4 15 -2 21 -17 5 -14 24 -34 43 -45 31 -20
33 -23 32 -79 0 -32 -4 -68 -8 -80 -4 -12 -2 -30 5 -42 10 -15 10 -25 1 -46
-15 -33 -15 -45 1 -45 19 0 42 -41 28 -50 -8 -4 -9 -21 -5 -48 5 -32 13 -46
38 -60 29 -17 31 -22 28 -63 -2 -38 3 -53 43 -114 25 -38 45 -74 45 -80 0 -6
11 -26 25 -45 16 -21 23 -41 19 -53 -19 -61 30 -119 94 -110 38 6 40 -2 10
-35 -21 -23 -22 -25 -3 -18 36 13 40 11 40 -24 0 -33 2 -35 33 -33 32 1 33 0
27 -28 -6 -25 -3 -30 32 -45 21 -10 58 -18 83 -18 31 -1 55 -8 74 -23 16 -13
42 -23 59 -23 23 0 27 -3 19 -13 -9 -10 -6 -18 9 -31 17 -14 30 -16 62 -10 23
4 50 7 59 5 9 -1 30 5 47 13 41 22 61 20 61 -4 0 -11 3 -20 6 -20 12 0 64 55
64 67 0 7 6 13 13 13 7 0 28 14 45 31 23 23 32 27 32 15 0 -9 8 -16 20 -16 11
0 20 7 20 15 0 8 5 15 11 15 5 0 8 4 4 9 -3 5 0 13 6 17 8 4 9 3 5 -4 -10 -16
6 -15 30 2 14 11 16 18 8 26 -9 9 -8 22 4 53 9 23 20 44 24 45 5 2 8 8 8 14 0
27 48 107 73 121 24 14 27 22 27 71 0 46 3 56 21 61 18 6 20 14 18 63 -2 65
10 101 49 147 68 81 74 91 61 116 -14 27 9 151 32 175 18 20 20 28 12 76 -7
44 -6 57 9 78 14 21 38 150 38 207 0 7 5 13 11 13 29 0 43 34 47 116 3 46 8
81 13 78 28 -17 -6 214 -45 308 -19 44 -20 51 -6 43 6 -3 7 1 4 9 -3 9 -10 13
-15 10 -5 -3 -6 3 -2 12 6 16 7 15 20 -2 7 -10 13 -14 13 -9 0 5 -8 17 -17 28
-10 10 -25 36 -33 57 -15 37 -93 131 -108 129 -24 -4 -32 3 -27 24 8 32 -29
87 -58 87 -35 0 -47 19 -48 80 l-1 55 -8 -48 c-10 -57 -19 -72 -19 -31 0 125
-8 187 -23 178 -5 -3 -7 -12 -4 -20 3 -8 -1 -14 -11 -14 -11 0 -13 -3 -5 -13
6 -7 8 -27 3 -47 -4 -22 -10 -30 -14 -22 -5 6 -6 16 -3 21 3 5 -8 23 -24 41
-17 18 -30 27 -30 20 0 -6 -25 10 -56 36 -31 27 -51 50 -45 52 5 2 20 -6 33
-17 12 -12 28 -21 36 -21 7 0 30 -12 50 -27 21 -16 31 -20 23 -10 -41 52 -193
135 -271 149 -71 12 -119 53 -101 86 6 11 7 23 3 28 -4 5 0 3 9 -4 20 -15 30
-5 23 23 -4 18 2 27 33 45 36 22 103 84 103 97 0 3 -11 3 -25 1 -17 -4 -26 0
-30 12 -14 46 -88 30 -165 -35 -69 -57 -116 -72 -106 -31 5 19 1 25 -17 30
-34 9 -37 8 -37 -14 0 -13 -7 -20 -18 -20 -24 0 -47 -22 -102 -98 -25 -33 -55
-66 -67 -71 -12 -6 -40 -27 -62 -47 -23 -20 -41 -33 -41 -30 0 4 -12 -2 -27
-11 l-28 -18 24 40 c13 22 30 45 38 51 7 6 13 15 13 19 0 11 80 107 97 118 8
5 11 12 8 18 -4 5 9 21 27 37 18 15 50 43 70 63 l37 37 -34 -1 c-18 0 -43 -5
-56 -9z m103 -150 c-7 -7 -12 -8 -12 -2 0 14 12 26 19 19 2 -3 -1 -11 -7 -17z
m-44 -55 c-27 -47 -48 -73 -61 -73 -11 0 16 45 51 83 34 36 35 34 10 -10z
m-162 -170 c-7 -16 -24 -53 -39 -83 -14 -30 -29 -72 -33 -94 -6 -32 -8 -36
-17 -21 -10 18 9 69 66 173 31 55 44 70 23 25z m568 -68 c106 -52 142 -78 132
-94 -13 -20 -36 -12 -120 44 -80 54 -129 95 -111 95 5 0 49 -20 99 -45z m-97
-116 l27 -32 -30 16 c-38 20 -124 100 -124 116 0 14 91 -57 127 -100z m-181
70 c15 -30 15 -31 -1 -25 -9 3 -19 6 -21 6 -2 0 -4 11 -4 25 0 33 6 32 26 -6z
m273 -259 c-13 -9 -39 -2 -39 10 0 4 12 5 26 2 17 -3 22 -7 13 -12z m311 -268
c0 -4 15 -12 33 -17 28 -9 36 -19 64 -90 31 -78 45 -155 58 -317 4 -53 3 -78
-4 -78 -6 0 -11 11 -11 24 0 58 -66 81 -199 72 -183 -13 -408 -73 -431 -116
-16 -30 -97 -25 -176 11 -86 38 -177 58 -274 60 -116 1 -43 17 119 25 124 7
132 8 106 22 -22 11 -25 16 -14 23 10 6 4 9 -18 9 -17 0 -34 4 -38 9 -19 32
-187 19 -317 -24 -40 -14 -78 -25 -84 -25 -11 0 -29 86 -39 186 -4 49 -2 64
10 74 9 8 23 26 31 41 8 16 25 40 39 53 24 24 28 25 73 13 27 -6 48 -16 49
-22 1 -29 533 -93 533 -64 0 3 21 11 48 16 201 43 332 78 371 98 48 25 71 31
71 17z m257 -134 c-3 -8 -6 -5 -6 6 -1 11 2 17 5 13 3 -3 4 -12 1 -19z m-217
-348 c34 -18 44 -51 41 -130 -3 -95 -25 -146 -90 -209 -87 -85 -183 -101 -278
-46 -73 43 -136 172 -131 265 3 52 5 56 38 72 40 19 257 55 343 57 32 1 67 -4
77 -9z m-897 -30 c98 -14 144 -41 169 -97 18 -41 19 -52 9 -97 -39 -175 -232
-274 -376 -193 -50 28 -103 97 -110 145 -3 20 -11 60 -17 88 -6 29 -8 64 -4
78 17 68 157 101 329 76z m342 -120 c22 0 25 -4 25 -34 0 -19 4 -46 10 -60 6
-17 6 -26 0 -26 -6 0 -10 5 -10 12 0 6 -3 9 -6 5 -22 -22 116 -176 188 -210
48 -22 135 -34 183 -25 49 10 127 68 173 128 l34 44 -4 -49 c-7 -79 -50 -215
-68 -215 -40 0 -148 -81 -162 -121 -4 -11 -11 -9 -29 7 -13 12 -52 36 -87 55
-75 40 -107 34 -134 -22 -18 -38 -67 -67 -90 -53 -7 5 -40 9 -74 10 -43 1 -75
9 -112 28 -55 28 -77 33 -66 15 4 -8 -2 -9 -22 -5 -17 4 -61 -2 -109 -15 -171
-46 -165 -49 -258 100 -60 97 -75 128 -80 172 -4 35 -3 47 2 33 5 -12 23 -32
40 -45 17 -13 44 -34 59 -45 34 -27 112 -54 156 -54 39 0 155 34 206 60 83 43
122 113 127 230 6 114 5 112 47 95 20 -8 47 -15 61 -15z m-285 -620 c-20 -13
-33 -13 -25 0 3 6 14 10 23 10 15 0 15 -2 2 -10z m656 -105 c12 -47 -37 -124
-70 -112 -18 7 -108 -88 -136 -144 -26 -50 -31 -52 -71 -26 -86 54 -140 51
-232 -14 -46 -32 -48 -32 -79 -17 -22 10 -45 36 -68 76 -20 36 -40 60 -47 57
-21 -7 -15 49 7 77 18 24 24 25 92 20 69 -4 76 -3 106 22 27 24 36 26 69 19
66 -14 175 -9 203 9 14 9 54 19 90 23 36 4 76 13 90 21 35 18 39 17 46 -11z"/>
<path d="M2198 2215 c-110 -25 -197 -71 -111 -59 22 3 33 2 26 -3 -6 -4 73 -8
175 -8 l187 -1 74 -33 c78 -34 96 -34 65 0 l-19 22 25 -12 c18 -9 15 -3 -14
23 -21 20 -64 45 -95 57 -73 28 -220 34 -313 14z"/>
<path d="M1620 3119 c0 -5 5 -7 10 -4 6 3 10 8 10 11 0 2 -4 4 -10 4 -5 0 -10
-5 -10 -11z"/>
<path d="M2921 2324 c0 -11 3 -14 6 -6 3 7 2 16 -1 19 -3 4 -6 -2 -5 -13z"/>
<path d="M2951 2254 c0 -11 3 -14 6 -6 3 7 2 16 -1 19 -3 4 -6 -2 -5 -13z"/>
</g>
</svg>
